<?xml version="1.0" standalone="no"?>
<!DOCTYPE svg PUBLIC "-//W3C//DTD SVG 20010904//EN"
 "http://www.w3.org/TR/2001/REC-SVG-20010904/DTD/svg10.dtd">
<svg version="1.0" xmlns="http://www.w3.org/2000/svg"
 width="700.000000pt" height="700.000000pt" viewBox="0 0 700.000000 700.000000"
 preserveAspectRatio="xMidYMid meet">
<metadata>
Created by potrace 1.11, written by Peter Selinger 2001-2013
</metadata>
<g transform="translate(0.000000,700.000000) scale(0.100000,-0.100000)"
fill="#000000" stroke="none">
<path d="M3543 6982 c-54 -22 -97 -64 -125 -121 -22 -45 -22 -52 -24 -531 -1
-267 -2 -488 -3 -491 0 -3 -358 -6 -793 -6 -691 0 -802 -3 -860 -17 -189 -45
-327 -138 -444 -302 -92 -129 -129 -252 -128 -429 1 -86 4 -127 24 -260 5 -33
12 -85 15 -115 3 -30 10 -85 15 -123 6 -37 12 -89 15 -115 3 -26 8 -58 10 -72
2 -14 7 -47 10 -75 3 -27 8 -67 11 -87 l5 -38 -586 0 c-640 0 -639 0 -669 -57
-22 -43 -23 -526 -2 -578 20 -46 64 -65 153 -65 l68 0 0 -1708 c0 -1390 2
-1714 13 -1733 28 -52 37 -54 327 -56 291 -3 301 -1 338 49 21 28 21 33 21
1738 l0 1710 214 -2 214 -3 18 -55 c75 -236 238 -405 466 -484 93 -33 167 -39
454 -41 135 -1 250 -3 256 -4 7 -1 11 -39 10 -114 l0 -113 -305 0 c-360 1
-419 -6 -540 -65 -182 -90 -299 -263 -317 -470 -5 -50 -2 -74 10 -100 31 -66
7 -63 591 -65 292 -1 537 -3 546 -3 14 -1 15 -40 16 -347 0 -243 -3 -347 -11
-349 -6 -2 -27 -6 -47 -8 -50 -6 -137 -47 -182 -86 -37 -33 -93 -133 -103
-186 -4 -17 -7 -91 -8 -165 l-1 -135 -255 -5 c-273 -5 -285 -8 -312 -58 -20
-37 -18 -429 2 -466 21 -41 63 -58 146 -59 68 -2 74 -3 74 -23 0 -59 86 -107
154 -84 44 14 68 46 75 101 1 3 263 5 582 5 l581 -1 12 -35 c33 -101 186 -103
216 -2 l12 37 68 1 c84 1 121 15 145 56 16 27 18 56 19 212 2 214 -3 250 -38
285 l-26 26 -260 3 -260 3 0 137 c0 87 -5 157 -14 191 -38 142 -168 246 -313
250 l-23 1 0 353 0 352 535 -1 c572 0 578 0 610 50 33 51 24 169 -22 286 -64
160 -189 277 -355 333 -77 27 -130 30 -453 31 l-310 1 0 115 0 115 285 1 c323
1 355 5 470 46 169 60 321 195 405 358 9 19 28 67 40 105 l23 70 203 0 203 0
0 -1710 c1 -1837 -2 -1731 50 -1766 18 -12 196 -14 1104 -17 951 -2 1087 -1
1115 13 67 32 62 -111 64 1750 0 930 2 1700 2 1713 1 20 6 22 66 22 36 0 81 7
101 15 59 25 64 50 64 335 0 197 -3 258 -15 286 -27 65 -22 64 -624 64 l-540
0 0 54 c2 101 -27 173 -89 227 -57 50 -106 67 -203 68 l-47 1 2 58 1 57 605 1
c583 1 607 1 650 21 57 25 106 75 133 133 21 45 21 54 21 1015 1 1087 5 1023
-72 1097 -75 73 42 68 -1685 67 -1439 0 -1555 -1 -1594 -17z m3107 -909 l0
-693 -1238 0 -1238 0 -13 35 c-6 19 -28 58 -48 87 -107 158 -274 272 -460 313
-21 4 -33 13 -34 23 -2 37 -5 917 -2 922 1 4 684 6 1517 6 l1516 0 0 -693z
m-3030 -489 c119 -30 211 -91 276 -184 88 -125 112 -231 90 -395 -3 -27 -9
-68 -12 -90 -2 -22 -7 -51 -9 -65 -3 -14 -7 -47 -10 -75 -4 -41 -38 -312 -60
-475 -3 -19 -7 -55 -10 -80 -40 -331 -88 -666 -101 -710 -49 -168 -186 -299
-359 -344 -90 -23 -1371 -23 -1459 0 -140 37 -259 129 -323 250 -26 50 -34 72
-48 134 -10 44 -15 73 -19 110 -11 94 -57 456 -61 480 -2 14 -6 48 -9 75 -4
28 -9 68 -12 90 -3 22 -7 54 -9 70 -2 17 -15 122 -30 235 -14 113 -28 223 -31
245 -2 22 -7 56 -10 75 -31 211 -21 304 42 417 66 118 181 206 312 237 46 12
221 14 922 15 765 1 872 -1 930 -15z m3028 -567 l3 -117 -1220 0 -1219 0 10
43 c6 23 12 74 13 112 2 39 3 72 4 75 1 3 542 5 1203 4 l1203 0 3 -117z
m-1868 -359 c3 -4 5 -29 5 -55 l-1 -48 -80 -6 c-165 -12 -260 -107 -269 -269
-2 -36 -4 -68 -4 -72 -1 -5 -71 -8 -156 -8 -117 0 -155 3 -155 13 0 6 5 41 10
77 5 36 12 92 15 125 4 33 8 67 10 75 2 8 7 42 11 75 7 65 12 100 13 101 7 5
598 -2 601 -8z m470 -50 l0 -58 -115 0 c-69 0 -115 4 -116 10 -1 6 -1 21 -1
35 0 77 -11 71 117 71 l115 1 0 -59z m338 -301 c7 -5 12 -29 12 -58 l0 -49
-460 0 -460 0 0 48 c0 26 5 53 10 58 12 12 879 13 898 1z m-4287 -382 c10 -55
22 -146 23 -170 1 -20 -5 -20 -544 -20 l-545 0 0 116 -1 115 530 0 530 -1 7
-40z m5464 -76 l1 -115 -1354 0 -1353 0 5 25 c5 23 9 50 22 146 1 11 3 29 3
41 l1 20 1338 0 1337 -1 0 -116z m-6065 -1983 l0 -1633 -115 0 c-98 0 -115 2
-116 16 0 9 -2 744 -2 1634 l-2 1617 118 0 117 0 0 -1634z m5834 1171 c1 -267
-3 -461 -8 -465 -18 -11 -1839 -8 -1850 4 -8 7 -11 153 -9 465 0 250 2 455 2
457 1 1 420 1 933 0 l932 -3 0 -458z m-3968 -699 c0 -62 -3 -115 -7 -118 -5
-4 -885 -5 -897 -1 -1 1 4 17 13 37 31 75 112 146 199 175 44 15 97 17 372 18
l321 1 -1 -112z m917 101 c62 -20 116 -52 156 -91 38 -38 84 -115 77 -127 -2
-3 -208 -6 -458 -5 l-453 0 -3 117 -3 118 326 -1 c193 -1 338 -5 358 -11z
m3043 -111 c5 -4 9 -199 8 -465 l0 -458 -935 -3 -934 -2 1 458 c0 252 3 463 6
468 6 10 1838 12 1854 2z m4 -1169 c8 -12 4 -908 -4 -916 -10 -10 -1849 -12
-1856 -2 -4 5 -5 868 -1 914 1 13 1853 16 1861 4z m-3670 -129 c49 -35 54 -54
55 -197 l1 -133 -233 0 -233 0 0 131 c0 205 12 217 232 218 137 2 151 0 178
-19z m638 -622 l3 -58 -816 0 c-645 0 -815 3 -816 13 -4 53 -3 84 3 93 5 7
260 10 815 10 l808 -1 3 -57z"/>
<path d="M4015 6622 c-22 -16 -92 -83 -156 -149 -116 -120 -132 -145 -121
-198 6 -33 55 -83 85 -87 61 -9 80 3 214 135 72 71 139 145 148 163 33 69 -13
150 -91 161 -32 4 -46 -1 -79 -25z"/>
<path d="M4484 6508 c-38 -29 -450 -440 -486 -486 -35 -43 -37 -97 -7 -136 22
-29 65 -52 89 -50 8 1 24 2 35 3 11 1 128 109 277 258 277 277 290 294 264
358 -30 72 -113 97 -172 53z"/>
<path d="M5435 3141 c-53 -22 -80 -101 -55 -161 22 -53 57 -63 216 -63 157 -1
196 9 219 54 8 15 15 47 15 70 0 35 -6 47 -35 74 l-34 33 -153 1 c-84 0 -162
-4 -173 -8z"/>
<path d="M5453 1977 c-106 -29 -115 -175 -14 -217 20 -8 77 -11 181 -8 l152 3
29 33 c50 56 33 156 -33 183 -32 13 -273 18 -315 6z"/>
<path d="M5465 813 c-78 -15 -117 -93 -83 -167 23 -52 51 -60 202 -62 76 -1
154 3 172 8 46 12 74 55 74 111 0 37 -5 51 -31 76 -17 17 -38 32 -47 33 -39 3
-269 4 -287 1z"/>
</g>
</svg>
